<svg id="Capa_1" data-name="Capa 1" xmlns="http://www.w3.org/2000/svg" viewBox="0 0 241.14 87.65"><defs><style>.cls-1{isolation:isolate;}.cls-2{fill:#292b5f;}.cls-3{fill:none;stroke:#e94f1d;stroke-miterlimit:10;stroke-width:11px;}</style></defs><title>scam2</title><g class="cls-1"><path class="cls-2" d="M18.45,80.31V65.58q7.14,4,12,4a6.38,6.38,0,0,0,4.46-1.49,5.09,5.09,0,0,0,1.64-3.95,5.62,5.62,0,0,0-1.32-3.56,24.4,24.4,0,0,0-4.53-4Q22.91,50.86,19.42,46A18.33,18.33,0,0,1,15.93,35a17.68,17.68,0,0,1,5.4-13.36q5.4-5.16,14-5.16a32.34,32.34,0,0,1,12.58,2.61V33.29Q41.19,29.78,37,29.78a6.8,6.8,0,0,0-4.38,1.3A4.34,4.34,0,0,0,31,34.66q0,4,7.48,9a44.9,44.9,0,0,1,9,8.26,18.4,18.4,0,0,1,4.58,12.34,17.47,17.47,0,0,1-6,13.57q-6,5.37-15.21,5.37A29.76,29.76,0,0,1,18.45,80.31Z" transform="translate(-15.93 -7.31)"/><path class="cls-2" d="M97.62,66.58v15a29.21,29.21,0,0,1-8.52,1.47q-13,0-21.13-9.36t-8.1-24.6q0-14.16,8.18-23.37A26.4,26.4,0,0,1,88.7,16.52a30.68,30.68,0,0,1,8.92,1.23V32.81a26.94,26.94,0,0,0-8.12-1.37,11.71,11.71,0,0,0-9.71,5.11q-3.87,5.12-3.87,13,0,8.52,3.89,13.47a12.52,12.52,0,0,0,10.38,5A23.92,23.92,0,0,0,97.62,66.58Z" transform="translate(-15.93 -7.31)"/><path class="cls-2" d="M153.6,81.49H138l-2.53-10.55H119.62L117,81.49H101.68l17.54-63.22h16.85Zm-21-21.92a264.49,264.49,0,0,1-5-26.85h-.2q-1.78,13.11-5,26.85Z" transform="translate(-15.93 -7.31)"/><path class="cls-2" d="M166,18.27h19q4.06,20.46,6.4,35.19l1.63-9.8q1-5.73,2.13-11.18L198,18.27h19.37l7.53,63.22H210.08l-4-43.47-9.26,43.47H186.65l-9.71-43.56-3.87,43.56H158.86Z" transform="translate(-15.93 -7.31)"/></g><line class="cls-3" x1="235.64" x2="235.64" y2="87.65"/></svg>